HIERARCHY
ROOT Hips
{
    OFFSET 0.000000 0.000000 0.000000
    CHANNELS 6 Xposition Yposition Zposition Zrotation Xrotation Yrotation
        JOINT Spine1
        {
            OFFSET -0.000000 23.269398 0.000000
            CHANNELS 3 Zrotation Xrotation Yrotation
            JOINT Neck
            {
                OFFSET -0.000000 18.032967 0.000000
                CHANNELS 3 Zrotation Xrotation Yrotation
                JOINT Head
                {
                    OFFSET -0.000000 13.091072 1.689171
                    CHANNELS 3 Zrotation Xrotation Yrotation
                    End Site
                    {
                        OFFSET -0.000000 16.891708 0.000000
                    }
                }
            }
            JOINT LeftShoulder
            {
                OFFSET 3.336773 14.146137 -0.012206
                CHANNELS 3 Zrotation Xrotation Yrotation
                JOINT LeftArm
                {
                    OFFSET 11.765518 0.000000 0.000000
                    CHANNELS 3 Zrotation Xrotation Yrotation
                    JOINT LeftForeArm
                    {
                        OFFSET 25.163450 0.000000 0.000000
                        CHANNELS 3 Zrotation Xrotation Yrotation
                        JOINT LeftHand
                        {
                            OFFSET 21.783554 0.000000 0.000000
                            CHANNELS 3 Zrotation Xrotation Yrotation
                            End Site
                            {
                                OFFSET 12.668781 0.000000 0.000000
                            }
                        }
                    }
                }
            }
            JOINT RightShoulder
            {
                OFFSET -3.409204 14.146137 -0.012206
                CHANNELS 3 Zrotation Xrotation Yrotation
                JOINT RightArm
                {
                    OFFSET -11.765518 0.000000 0.000000
                    CHANNELS 3 Zrotation Xrotation Yrotation
                    JOINT RightForeArm
                    {
                        OFFSET -25.163450 0.000000 0.000000
                        CHANNELS 3 Zrotation Xrotation Yrotation
                        JOINT RightHand
                        {
                            OFFSET -21.783554 0.000000 0.000000
                            CHANNELS 3 Zrotation Xrotation Yrotation
                            End Site
                            {
                                OFFSET -12.668781 0.000000 0.000000
                            }
                        }
                    }
                }
            }
        }
        JOINT LeftUpLeg
    {
        OFFSET 8.445854 0.000000 0.000000
        CHANNELS 3 Zrotation Xrotation Yrotation
        JOINT LeftLeg
        {
            OFFSET -0.000000 -40.674755 0.000000
            CHANNELS 3 Zrotation Xrotation Yrotation
            JOINT LeftFoot
            {
                OFFSET -0.000000 -37.111794 0.000000
                CHANNELS 3 Zrotation Xrotation Yrotation
                JOINT LeftToeBase
                {
                    OFFSET -0.000000 -5.489805 12.668781
                    CHANNELS 3 Zrotation Xrotation Yrotation
                    End Site
                    {
                        OFFSET -0.000000 0.000000 3.378341
                    }
                }
            }
        }
    }
    JOINT RightUpLeg
    {
        OFFSET -8.445854 0.000000 0.000000
        CHANNELS 3 Zrotation Xrotation Yrotation
        JOINT RightLeg
        {
            OFFSET -0.000000 -40.674755 0.000000
            CHANNELS 3 Zrotation Xrotation Yrotation
            JOINT RightFoot
            {
                OFFSET -0.000000 -37.111794 0.000000
                CHANNELS 3 Zrotation Xrotation Yrotation
                JOINT RightToeBase
                {
                    OFFSET -0.000000 -5.489805 12.668781
                    CHANNELS 3 Zrotation Xrotation Yrotation
                    End Site
                    {
                        OFFSET -0.000000 0.000000 3.378341
                    }
                }
            }
        }
    }
}
MOTION
Frames:    8
Frame Time:    0.008333
4.238354    83.831421    17.033249    3.240788    -2.941102    3.644511    -2.405261    14.099800    -4.795769    1.246122    2.477213    -2.394381    -7.026972    13.286880    -0.578604    -0.324513    9.256766    9.064727    -43.308743    41.976490    -40.888271    5.635767    0.069490    -25.633875    0.138308    1.344600    -6.668104    -2.663986    6.413945    -1.496272    59.186825    12.023667    37.877094    16.549076    12.133729    101.196129    -28.584578    -6.669641    -6.245890    2.289189    -6.467712    -18.013353    -8.247636    29.410784    9.601480    -5.659294    -13.691986    16.236403    -7.324340    -7.930432    4.358765    -0.619438    -1.857720    1.015023    -5.499015    2.176674    -3.726494    -2.298569    -0.358707    -1.300696    -0.593890    1.779935    -1.339648    
4.338160    83.805374    16.911442    3.221410    -2.940449    3.605400    -2.360593    13.954780    -4.813215    1.203974    2.511809    -2.336821    -6.954408    13.287823    -0.542874    -0.421857    9.255865    9.111077    -43.502899    41.930462    -40.557941    5.651721    0.149085    -25.698172    0.019874    1.437968    -6.824098    -2.624849    6.445035    -1.545986    59.360111    12.010839    37.823963    16.588308    12.297851    101.184662    -28.605751    -6.568488    -6.162222    2.175505    -6.196287    -17.216089    -8.180710    29.937210    8.328141    -5.122460    -14.718992    16.829206    -4.976182    -5.071817    3.547726    -0.697823    -1.927732    0.991416    -5.458662    2.177448    -3.627676    -2.201718    -0.505316    -1.331079    -0.444721    1.501555    -1.313654    
4.435454    83.783928    16.796722    3.153193    -2.966526    3.531814    -2.271296    13.835775    -4.785368    1.124329    2.483854    -2.313974    -6.810226    13.355193    -0.562981    -0.445353    9.243479    9.172945    -43.753109    41.938717    -40.269924    5.593663    0.126221    -25.845894    -0.003285    1.410821    -6.646257    -2.575527    6.443402    -1.640991    59.477627    12.038062    37.762699    16.593508    12.404356    101.223724    -28.856903    -6.506738    -6.007770    2.158707    -5.866329    -16.473711    -8.070595    30.406395    7.267426    -5.251985    -15.076117    16.755178    -6.321347    -6.842713    3.616636    -0.729670    -1.980731    1.028692    -5.393130    2.216297    -3.023990    -2.026221    -0.627708    -1.927007    -0.289251    1.183987    -1.237031    
4.530848    83.763214    16.683435    3.019287    -2.969579    3.522218    -2.111314    13.606659    -4.910179    1.265934    2.599752    -2.300206    -7.016275    13.271616    -0.480365    -0.469945    9.377068    9.333998    -43.973179    41.849720    -40.066902    5.519153    0.229010    -25.903809    -0.019896    1.500316    -6.587350    -2.570604    6.569178    -1.758006    59.579025    12.124506    37.831722    16.800135    12.517908    101.182266    -28.203039    -6.641939    -6.142325    2.251326    -5.503475    -15.626123    -7.739317    30.791397    5.991753    -5.911622    -14.902215    16.089832    -7.198382    -7.892846    3.957534    -0.674728    -2.014307    1.026374    -5.395491    2.159795    -3.112720    -1.681142    -0.737930    -1.848647    -0.152997    0.946545    -1.240539    
4.642358    83.731766    16.551130    2.891216    -2.934271    3.495464    -1.958483    13.410282    -5.012658    1.253703    2.593707    -2.244552    -6.968939    13.342281    -0.432128    -0.543855    9.378754    9.418510    -44.162861    41.823936    -39.786049    5.495807    0.319723    -25.850086    0.058289    1.578302    -6.777725    -2.534498    6.587373    -1.829598    59.688816    12.155850    37.814980    16.855112    12.646123    101.150230    -28.211252    -6.570524    -6.136774    2.252889    -5.202427    -14.669762    -7.289362    30.933319    4.617804    -5.984338    -14.650786    16.070557    -7.660911    -8.419474    4.231110    -0.710681    -2.112624    1.022486    -5.255002    2.133391    -3.203369    -1.370069    -1.003034    -1.741878    -0.105072    0.903998    -1.314620    
4.770389    83.698624    16.421192    2.808132    -2.887253    3.439716    -1.909555    13.233944    -5.121573    1.380041    2.706054    -2.191604    -7.164594    13.113491    -0.322609    -0.482354    9.387218    9.514866    -44.404419    41.715385    -39.567673    5.359335    0.361301    -25.929577    0.235387    1.582134    -6.683636    -2.545828    6.620791    -1.825907    59.813202    12.155373    37.887611    16.946884    12.723442    101.127754    -28.217646    -6.613540    -6.083297    2.152656    -4.846052    -13.477840    -6.641785    30.808594    3.124728    -5.703457    -15.592235    16.528805    -6.264773    -6.715388    3.767180    -0.733923    -2.217298    1.060412    -5.240966    2.042038    -3.239671    -2.661343    -0.898065    -1.611011    0.012290    0.363601    -0.709895    
4.886517    83.679077    16.311975    2.656871    -2.880106    3.417682    -1.702146    13.078624    -5.242301    1.262667    2.670484    -2.141050    -6.925660    13.213345    -0.340967    -0.560404    9.385989    9.556898    -44.414162    41.818008    -39.451187    5.259887    0.292253    -25.786386    0.242877    1.483127    -6.554095    -2.566615    6.621513    -1.874058    59.939034    12.120055    37.875217    17.061855    12.916290    101.065269    -28.205601    -6.575701    -5.943920    2.173327    -4.387864    -12.591375    -6.110610    30.518145    1.937112    -5.800509    -15.831897    16.530424    -5.164492    -5.376399    3.408367    0.817355    -2.345653    0.425475    -8.447000    2.170117    -2.574236    1.034037    -1.413177    -1.584239    0.045113    0.607474    -1.255879    
5.023926    83.656570    16.178154    2.523785    -2.813399    3.321882    -1.562662    12.862683    -5.298060    1.309435    2.668552    -2.115717    -6.920115    13.242156    -0.307138    -0.644983    9.800533    9.939316    -44.133305    41.653137    -40.040997    5.164269    0.379950    -25.532967    0.262811    1.535614    -6.558468    -2.534996    6.628803    -1.884615    60.030155    12.040343    37.849327    17.133429    13.099383    101.020576    -28.289444    -6.487995    -5.827085    2.256620    -3.988751    -11.616846    -5.558073    30.097178    0.867069    -6.471635    -14.759347    15.779686    -7.086985    -7.578367    4.463667    0.792596    -2.352834    1.162087    -8.337289    1.946295    -2.998500    1.320949    -1.366875    -1.830275    0.199898    0.342396    -1.267053    
